<?xml version="1.0" standalone="no"?>
<!DOCTYPE svg PUBLIC "-//W3C//DTD SVG 20010904//EN"
 "http://www.w3.org/TR/2001/REC-SVG-20010904/DTD/svg10.dtd">
<svg version="1.0" xmlns="http://www.w3.org/2000/svg"
 width="1616.000000pt" height="1616.000000pt" viewBox="0 0 1616.000000 1616.000000"
 preserveAspectRatio="xMidYMid meet">
<metadata>
Created by potrace 1.14, written by Peter Selinger 2001-2017
</metadata>
<g transform="translate(0.000000,1616.000000) scale(0.100000,-0.100000)"
fill="#000000" stroke="none">
<path d="M2865 12870 c-85 -22 -161 -90 -210 -186 -15 -30 -32 -54 -37 -54 -5
0 -6 -4 -3 -10 3 -5 1 -10 -4 -10 -6 0 -11 -5 -11 -11 0 -5 -30 -61 -67 -122
-36 -62 -77 -132 -91 -157 -14 -25 -33 -57 -43 -72 -11 -14 -19 -29 -19 -33 0
-3 -7 -13 -15 -22 -8 -8 -13 -19 -10 -24 4 -5 2 -9 -2 -9 -5 0 -26 -30 -46
-67 -21 -38 -51 -88 -67 -113 -16 -25 -29 -51 -29 -57 -1 -7 -5 -13 -11 -13
-5 0 -10 -4 -10 -10 0 -9 -14 -34 -174 -303 -42 -71 -76 -131 -76 -134 0 -2
-8 -17 -19 -31 -19 -28 -67 -111 -85 -149 -6 -13 -14 -23 -18 -23 -5 0 -8 -5
-8 -10 0 -6 -11 -27 -23 -48 -13 -20 -66 -109 -118 -197 -51 -88 -98 -163
-104 -167 -5 -4 -7 -8 -2 -8 4 0 0 -12 -10 -26 -9 -14 -24 -38 -32 -54 -78
-137 -227 -386 -233 -388 -4 -2 -8 -8 -8 -13 0 -5 -52 -97 -115 -205 -63 -108
-115 -200 -115 -205 0 -5 -4 -9 -10 -9 -5 0 -12 -11 -16 -25 -3 -14 -10 -25
-15 -25 -5 0 -9 -4 -9 -10 0 -5 -37 -72 -82 -147 -46 -76 -82 -141 -80 -145 1
-5 -2 -8 -7 -8 -5 0 -11 -8 -15 -17 -3 -10 -11 -27 -18 -38 -41 -63 -78 -127
-78 -134 0 -5 -7 -14 -15 -21 -8 -7 -12 -16 -9 -21 3 -5 0 -9 -5 -9 -6 0 -11
-6 -11 -13 0 -7 -8 -22 -17 -33 -10 -11 -27 -37 -37 -59 -11 -22 -30 -54 -43
-72 -13 -17 -23 -34 -23 -36 0 -3 -29 -55 -65 -116 -36 -60 -65 -114 -65 -120
0 -5 -4 -11 -8 -13 -6 -2 -136 -217 -179 -297 -8 -14 -23 -39 -33 -56 -10 -16
-25 -41 -33 -55 -8 -14 -31 -54 -52 -90 -21 -36 -47 -82 -58 -102 -10 -21 -22
-38 -26 -38 -4 0 -8 -6 -8 -12 0 -7 -8 -29 -16 -49 -21 -48 -16 -152 10 -204
38 -76 86 -160 95 -163 4 -2 8 -9 8 -16 0 -6 11 -27 23 -46 21 -31 50 -80 94
-160 8 -14 32 -54 53 -89 22 -34 40 -67 40 -72 0 -5 5 -9 12 -9 6 0 9 -3 5 -6
-3 -3 10 -30 29 -59 19 -30 34 -59 34 -65 0 -5 4 -10 9 -10 5 0 12 -8 16 -19
3 -10 37 -71 75 -135 39 -64 70 -121 70 -126 0 -4 4 -10 8 -12 5 -1 43 -64 86
-138 90 -157 95 -165 121 -205 11 -16 20 -32 21 -35 2 -14 28 -60 35 -60 4 0
10 -11 13 -25 4 -14 11 -25 17 -25 6 0 7 -4 4 -10 -3 -5 -2 -10 3 -10 4 0 14
-16 22 -35 8 -19 17 -35 21 -35 4 0 9 -8 12 -17 7 -20 50 -95 78 -135 11 -14
19 -29 19 -32 0 -3 18 -35 40 -71 22 -36 40 -70 40 -75 0 -6 3 -10 8 -10 4 0
12 -10 18 -23 18 -38 66 -121 78 -137 7 -8 23 -36 37 -62 13 -27 27 -48 31
-48 5 0 8 -6 8 -13 0 -7 16 -37 36 -67 20 -30 36 -57 37 -60 0 -3 10 -21 22
-40 12 -19 25 -42 28 -50 4 -8 26 -44 48 -80 22 -36 42 -73 45 -82 4 -10 10
-18 15 -18 5 0 9 -4 9 -10 0 -5 27 -54 60 -109 33 -55 60 -105 60 -111 0 -5 4
-10 9 -10 5 0 11 -8 15 -17 3 -10 14 -31 23 -48 68 -113 93 -157 93 -166 0 -5
4 -9 8 -9 5 0 18 -19 31 -43 24 -46 21 -42 85 -148 25 -42 46 -81 46 -87 0 -5
4 -12 8 -14 7 -3 24 -30 80 -128 10 -19 47 -81 81 -138 33 -57 61 -108 61
-113 0 -5 5 -9 10 -9 6 0 10 -4 10 -9 0 -8 50 -95 108 -189 12 -20 25 -44 29
-52 4 -8 29 -50 55 -93 26 -43 48 -81 48 -84 0 -3 14 -25 30 -50 17 -24 30
-47 30 -50 0 -3 18 -34 40 -69 22 -35 40 -68 40 -74 0 -5 5 -10 10 -10 6 0 10
-4 10 -9 0 -16 67 -124 97 -157 16 -17 55 -44 88 -60 l60 -29 5665 1 c3116 0
5683 3 5705 7 21 4 42 11 45 16 3 5 14 11 26 15 26 8 104 85 104 103 0 7 4 13
9 13 8 0 33 87 36 125 1 6 5 28 10 50 4 22 9 47 10 55 2 13 17 97 20 110 1 3
5 30 9 60 5 30 10 64 13 75 5 26 10 52 18 95 3 19 8 46 11 60 3 14 7 36 9 50
4 24 11 65 19 105 3 19 17 97 21 120 1 6 3 12 4 15 2 3 4 19 6 35 1 17 5 45 9
63 3 17 8 44 11 60 3 15 7 38 10 52 9 44 27 144 30 165 1 11 8 48 14 83 7 35
14 75 16 90 2 15 6 38 9 52 3 13 8 40 11 60 3 20 8 47 11 60 3 14 7 39 9 55 3
17 7 41 10 55 5 23 17 94 30 165 2 17 7 41 10 55 11 55 14 77 19 110 3 19 8
45 10 56 2 12 7 38 10 58 3 20 10 53 14 73 28 129 -36 257 -160 320 l-53 27
-1722 1 c-948 0 -1723 3 -1723 7 0 4 -7 5 -15 2 -23 -9 -118 40 -159 82 -76
78 -95 168 -66 309 6 28 13 66 16 85 3 19 7 41 10 49 2 8 7 30 10 50 16 103
107 205 201 227 21 5 431 15 563 14 8 0 152 0 320 0 168 0 312 0 320 0 8 0
119 -1 245 -3 127 -1 236 2 243 7 7 5 12 5 12 0 0 -11 211 -11 228 0 7 4 12 4
12 -1 0 -10 691 -9 707 0 7 4 14 4 16 0 6 -10 340 -8 391 2 127 25 227 147
241 295 1 14 7 53 14 87 18 99 21 116 27 153 3 19 7 41 9 48 3 7 12 56 21 110
8 53 17 106 19 117 2 11 7 38 10 60 3 22 11 65 17 95 6 30 12 64 14 75 1 11 5
34 8 50 3 17 8 44 10 60 3 17 8 41 11 55 12 64 15 78 21 120 3 24 7 47 9 50 2
4 7 29 11 56 6 49 9 66 19 114 2 14 7 39 10 55 3 17 7 41 10 55 3 14 7 41 10
60 3 19 7 46 10 60 10 47 15 75 21 120 3 25 10 50 15 56 5 6 7 13 4 16 -3 2 0
31 6 64 24 127 17 200 -22 255 -11 16 -17 29 -14 29 4 0 -16 19 -44 43 -73 63
-119 74 -294 73 -81 -1 -147 3 -147 7 0 5 -4 5 -10 2 -16 -10 -111 -12 -116
-3 -3 5 -10 5 -16 2 -15 -9 -178 -10 -178 -1 0 5 -4 5 -10 2 -15 -9 -111 -12
-116 -4 -3 5 -11 6 -20 2 -23 -9 -814 -9 -814 0 0 5 -4 5 -10 2 -15 -9 -111
-12 -116 -4 -3 5 -11 6 -20 2 -23 -9 -1064 -9 -1064 0 0 5 -4 6 -9 3 -5 -3
-33 2 -62 11 -66 21 -162 111 -174 164 -4 19 -10 41 -12 49 -8 24 -7 101 2
150 4 25 9 55 10 67 2 12 6 36 10 53 4 17 8 41 9 53 7 62 39 131 84 179 19 21
41 38 49 38 7 0 13 4 13 9 0 8 11 13 55 26 39 12 129 17 235 14 8 0 98 0 200
0 102 0 192 0 200 0 8 0 62 0 120 0 58 0 112 0 120 0 8 0 62 0 120 0 58 0 112
0 120 0 8 0 80 0 160 0 80 0 152 0 160 0 8 0 110 0 225 1 116 0 215 0 220 -1
6 -1 14 -1 20 1 7 1 209 1 335 -1 8 0 62 0 120 0 58 0 112 0 120 0 8 0 92 0
185 1 94 1 175 0 180 -1 6 -1 15 0 20 1 8 1 87 1 175 -1 8 0 80 0 160 0 80 0
152 0 160 0 8 0 71 1 140 2 126 2 182 12 211 36 8 7 20 13 25 13 15 0 72 67
94 109 18 37 30 85 33 139 0 12 4 22 8 22 4 0 6 8 5 18 -2 9 1 31 6 47 7 26
12 52 23 130 1 11 3 20 5 20 2 0 8 30 14 80 3 22 14 90 26 150 24 127 32 173
33 198 1 9 4 17 7 17 3 0 6 8 7 18 1 22 11 97 13 97 1 0 4 11 6 25 10 72 15
100 29 170 3 14 9 50 15 80 5 30 12 69 15 85 3 17 8 46 11 65 3 19 7 42 9 50
3 8 7 33 10 55 4 22 8 47 10 55 3 8 7 33 11 55 3 22 10 59 15 83 9 42 17 90
24 141 2 14 4 26 5 26 2 0 7 24 14 70 7 45 13 77 21 117 4 15 8 41 10 58 3 18
6 39 9 49 13 42 20 113 20 181 -1 118 -49 194 -159 249 l-60 31 -6440 -1
c-3542 -1 -6453 -5 -6470 -9z m4550 -1515 c22 -4 55 -17 74 -27 35 -20 94 -74
102 -93 2 -5 36 -64 75 -130 143 -240 328 -556 361 -615 8 -14 25 -43 39 -65
13 -22 30 -51 37 -65 6 -14 14 -27 17 -30 4 -3 35 -54 69 -115 79 -137 84
-146 160 -273 33 -57 61 -108 61 -113 0 -5 4 -9 8 -9 5 0 14 -16 22 -35 8 -19
17 -35 22 -35 4 0 8 -4 8 -10 0 -5 24 -49 53 -97 29 -48 56 -95 60 -103 5 -8
13 -24 20 -35 7 -11 37 -62 67 -113 30 -51 62 -105 71 -120 9 -15 27 -46 40
-69 13 -23 62 -106 108 -185 46 -79 102 -174 124 -213 23 -38 46 -73 51 -77 6
-4 8 -8 3 -8 -4 0 11 -29 33 -64 22 -35 40 -68 40 -75 0 -6 3 -11 8 -11 4 0
25 -34 47 -75 22 -41 43 -75 48 -75 4 0 7 -4 7 -10 0 -5 17 -38 38 -72 21 -35
49 -85 62 -113 14 -27 28 -52 32 -55 14 -11 6 -165 -11 -200 -21 -43 -54 -103
-61 -110 -3 -3 -11 -16 -18 -29 -35 -61 -51 -90 -81 -139 -17 -29 -31 -57 -31
-62 0 -6 -3 -10 -7 -10 -5 0 -21 -26 -38 -58 -16 -31 -37 -66 -47 -76 -9 -10
-15 -22 -13 -26 3 -4 -2 -13 -10 -20 -8 -7 -15 -19 -15 -26 0 -8 -5 -14 -11
-14 -5 0 -7 -4 -4 -10 3 -5 3 -10 -2 -10 -4 0 -19 -21 -33 -47 -13 -27 -27
-50 -30 -53 -3 -3 -11 -16 -18 -30 -22 -41 -45 -82 -81 -140 -19 -30 -42 -68
-51 -85 -10 -16 -35 -59 -55 -95 -21 -36 -45 -78 -54 -93 -9 -16 -21 -36 -26
-45 -78 -130 -125 -213 -125 -221 0 -6 -4 -11 -10 -11 -5 0 -10 -4 -10 -9 0
-11 -61 -113 -73 -122 -5 -3 -8 -9 -7 -13 1 -6 -81 -151 -134 -236 -12 -19
-30 -52 -41 -72 -11 -21 -23 -38 -27 -38 -5 0 -8 -5 -8 -11 0 -6 -23 -48 -50
-94 -28 -46 -50 -88 -50 -94 0 -6 -4 -11 -8 -11 -5 0 -16 -15 -25 -32 -21 -42
-46 -85 -135 -235 -39 -67 -72 -126 -72 -131 0 -6 -7 -13 -16 -16 -9 -4 -14
-13 -10 -21 3 -8 2 -15 -2 -15 -5 0 -28 -35 -52 -77 -24 -43 -47 -79 -52 -81
-4 -2 -8 -8 -8 -13 0 -6 -33 -65 -72 -132 -40 -67 -75 -126 -78 -132 -44 -88
-107 -142 -196 -167 -69 -20 -3614 -19 -3683 1 -83 24 -139 77 -205 194 -17
30 -47 82 -66 114 -19 32 -39 67 -46 79 -6 11 -49 85 -96 165 -47 79 -88 152
-91 162 -4 9 -11 17 -17 17 -5 0 -10 8 -10 18 0 9 -9 28 -20 42 -11 14 -20 31
-20 38 0 6 -4 12 -8 12 -4 0 -19 22 -33 50 -13 27 -27 50 -31 50 -5 0 -8 4 -8
10 0 10 -161 286 -180 307 -6 7 -9 14 -8 15 1 2 -27 53 -63 113 -36 61 -69
117 -73 125 -4 8 -17 31 -29 52 -39 65 -202 342 -207 353 -3 5 -17 29 -32 52
-16 24 -28 45 -28 47 0 3 -32 57 -70 122 -38 64 -70 121 -70 125 0 5 -4 9 -10
9 -5 0 -10 6 -10 13 0 6 -17 39 -38 72 -21 33 -45 75 -53 93 -7 17 -16 32 -19
32 -4 0 -17 22 -31 50 -13 27 -27 50 -31 50 -5 0 -8 5 -8 10 0 6 -21 45 -48
88 -26 42 -53 88 -60 102 -7 14 -23 43 -37 65 -13 22 -41 69 -61 105 -21 36
-40 67 -43 70 -6 5 -40 66 -73 134 -25 50 -34 133 -19 182 13 42 33 86 42 94
3 3 11 20 18 38 8 17 17 32 22 32 4 0 11 10 15 23 4 12 19 40 33 62 36 57 49
78 57 95 4 8 26 47 49 85 107 179 180 305 216 373 13 23 27 42 31 42 4 0 8 9
8 19 0 11 4 21 8 23 5 2 23 30 42 63 18 33 38 63 43 66 5 3 8 9 8 13 -1 6 11
30 37 71 7 11 15 28 18 38 4 9 9 17 13 17 4 0 13 16 21 35 8 19 17 35 20 35 4
0 17 23 30 50 13 28 27 50 32 50 4 0 8 4 8 9 0 5 37 71 82 147 45 77 91 157
104 179 51 93 142 245 154 261 8 9 15 23 17 32 1 9 7 18 12 20 6 2 11 8 11 13
0 8 35 70 79 139 8 14 16 28 16 32 0 4 7 16 15 25 8 10 26 39 39 63 14 25 48
83 76 130 28 47 54 92 58 100 4 8 11 22 17 30 18 27 190 322 190 326 0 2 16
28 35 58 19 30 35 60 35 66 0 5 4 10 8 10 5 0 14 16 22 35 8 19 17 35 21 35 3
0 12 12 18 28 13 31 75 102 90 102 5 0 16 6 24 14 42 42 19 42 1900 41 986 -1
1810 -5 1832 -10z"/>
</g>
</svg>
